<?xml version="1.0" encoding="UTF-8"?>
<svg width="18px" height="18px" viewBox="0 0 18 18" version="1.1" xmlns="http://www.w3.org/2000/svg" xmlns:xlink="http://www.w3.org/1999/xlink">
    <title>icons/mail</title>
    <g id="icons/mail" stroke="none" stroke-width="1" fill="none" fill-rule="evenodd">
        <g id="email-action-unread" transform="translate(0.000000, 3.000000)" fill="#FFFFFF">
            <path d="M16.125,0.5905 C17.1605339,0.5905 18,1.42996609 18,2.4655 L18,2.4655 L18,11.4655 C18,12.5010339 17.1605339,13.3405 16.125,13.3405 L16.125,13.3405 L1.875,13.3405 C0.839466094,13.3405 0,12.5010339 0,11.4655 L0,11.4655 L0,2.4655 C0,1.42996609 0.839466094,0.5905 1.875,0.5905 L1.875,0.5905 Z M17.1189228,1.93800996 L9.23731778,8.3808537 C9.12224766,8.47490514 8.96524481,8.49058039 8.83619712,8.42787942 L8.76268222,8.3808537 L0.881077233,1.93800996 C0.797408272,2.09533546 0.75,2.27488133 0.75,2.4655 L0.75,2.4655 L0.75,11.4655 C0.75,12.0868203 1.25367966,12.5905 1.875,12.5905 L1.875,12.5905 L16.125,12.5905 C16.7463203,12.5905 17.25,12.0868203 17.25,11.4655 L17.25,11.4655 L17.25,2.4655 C17.25,2.27488133 17.2025917,2.09533546 17.1189228,1.93800996 Z M16.125,1.3405 L1.875,1.3405 C1.72109496,1.3405 1.57440817,1.37140501 1.440807,1.42734768 L8.999,7.606 L16.559193,1.42734768 C16.4255918,1.37140501 16.278905,1.3405 16.125,1.3405 L16.125,1.3405 Z" id="Combined-Shape"></path>
        </g>
    </g>
</svg>