<?xml version="1.0" encoding="UTF-8"?>
<svg width="18px" height="18px" viewBox="0 0 18 18" version="1.1" xmlns="http://www.w3.org/2000/svg" xmlns:xlink="http://www.w3.org/1999/xlink">
    <title>icons/Business-Products / Strategy / strategy-split</title>
    <g id="icons/Business-Products-/-Strategy-/-strategy-split" stroke="none" stroke-width="1" fill="none" fill-rule="evenodd">
        <g id="strategy-split" fill="#FFFFFF">
            <path d="M9,0.000247596115 C9.27656598,0.000247596115 9.5326175,0.146147653 9.67411495,0.38492993 L9.67411495,0.38492993 L11.4032374,3.32054041 C11.5462451,3.56223522 11.548574,3.86207769 11.4093378,4.1059647 C11.2701017,4.34985155 11.0107125,4.50027781 10.73025,4.50000058 L10.73025,4.50000058 L9.37413569,4.4992476 L9.3747776,13.1342277 C10.2488194,11.1212157 11.8404296,9.45435534 13.9014929,8.50496486 L13.4481604,7.41143053 C13.3454247,7.16274348 13.3837809,6.87807806 13.5486747,6.66545183 C13.7135685,6.45282559 13.979729,6.34482469 14.2461604,6.38243053 L14.2461604,6.38243053 L17.3531425,6.81943529 C17.6180986,6.85554756 17.8437859,7.02999869 17.9454917,7.27730764 C18.0471975,7.5246166 18.0095356,7.8073701 17.848787,8.01661598 L17.848787,8.01661598 L15.9607108,10.5233023 C15.798986,10.738857 15.5340506,10.8510789 15.2667009,10.8172725 C14.9993512,10.7834661 14.7706892,10.6088288 14.6677889,10.359991 L14.6677889,10.359991 L14.1868849,9.19931642 C11.3484792,10.5197481 9.48770077,13.3264449 9.37994537,16.4589813 L9.375,16.74675 L9.375,17.625 C9.375,17.8062184 9.24645675,17.957414 9.07557558,17.9923813 L9,18 L9,18 C8.81878157,18 8.66758602,17.8714568 8.63261867,17.7005756 L8.625,17.625 L8.625,16.74675 C8.625,13.499196 6.73817177,10.5600583 3.81311505,9.19931642 L3.33228924,10.3598023 C3.22931081,10.6088288 3.00064882,10.7834661 2.73329911,10.8172725 C2.4659494,10.8510789 2.20101402,10.738857 2.03971298,10.523866 L2.03971298,10.523866 L0.153357467,8.01943529 C-0.00953557402,7.8073701 -0.0471974768,7.5246166 0.0545083303,7.27730764 C0.156214137,7.02999869 0.381901445,6.85554756 0.646857467,6.81943529 L0.646857467,6.81943529 L3.75383958,6.38243053 C4.02027097,6.34482469 4.28643146,6.45282559 4.45132527,6.66545183 C4.61621909,6.87807806 4.65457534,7.16274348 4.55183993,7.41142968 L4.55183993,7.41142968 L4.09978206,8.50555225 C6.16043959,9.45514085 7.7516895,11.1219751 8.62549319,13.1348514 L8.62413569,4.4992476 L7.27012094,4.50000058 C7.02439169,4.50024315 6.79508071,4.38510337 6.64831515,4.1929295 L6.59066221,4.1059647 C6.45142599,3.86207769 6.45375486,3.56223522 6.59638505,3.32117993 L6.59638505,3.32117993 L8.32638971,0.384075739 C8.4673825,0.146147653 8.72343402,0.000247596115 9,0.000247596115 Z M3.85866042,7.12506947 L0.74973017,7.56234487 L2.63921076,10.0731977 L3.85866042,7.12506947 Z M14.1413399,7.12507032 L15.3607892,10.0731977 L17.2518575,7.56256471 L14.1413399,7.12507032 Z M9,0.750247596 C8.98834396,0.750247596 8.97755252,0.756396641 8.97211495,0.76557007 L8.97211495,0.76557007 L7.24223741,3.70245959 C7.23647318,3.71220161 7.23637931,3.72428739 7.24199152,3.73411777 C7.24760377,3.74394822 7.25805919,3.7500004 7.26975,3.7500004 L7.26975,3.7500004 L10.7306209,3.7500004 C10.7419408,3.7500004 10.7523962,3.74394822 10.7580085,3.73411777 C10.7636207,3.72428739 10.7635268,3.71220161 10.7573851,3.70182007 L10.7573851,3.70182007 L9.02838971,0.766424261 C9.02244748,0.756396641 9.01165604,0.750247596 9,0.750247596 Z" id="Combined-Shape"></path>
        </g>
    </g>
</svg>