<?xml version="1.0" encoding="utf-8"?>
<!-- Generator: Adobe Illustrator 16.0.3, SVG Export Plug-In . SVG Version: 6.00 Build 0)  -->
<!DOCTYPE svg PUBLIC "-//W3C//DTD SVG 1.1//EN" "http://www.w3.org/Graphics/SVG/1.1/DTD/svg11.dtd">
<svg version="1.1" id="Calque_1" xmlns="http://www.w3.org/2000/svg" xmlns:xlink="http://www.w3.org/1999/xlink" x="0px" y="0px"
	 width="500px" height="500px" viewBox="0 0 500 500" enable-background="new 0 0 500 500" xml:space="preserve">
<g transform="matrix(5.833333333333333,0,0,5.833333333333333,0,0)">
	<path fill="none" stroke="#FFFFFF" stroke-width="1.5" stroke-linecap="round" stroke-linejoin="round" d="M34.911,44.171
		l-14.893,7.482c-3.477,1.748-7.713,0.348-9.461-3.129c-0.001-0.002-0.002-0.004-0.003-0.006l0,0
		c-1.748-3.477-0.348-7.713,3.129-9.461c0.002-0.001,0.004-0.002,0.006-0.003l22.05-11.071l4.225,8.411"/>
	<path fill="none" stroke="#FFFFFF" stroke-width="1.5" stroke-linecap="round" stroke-linejoin="round" d="M37.321,31.121
		c-1.749-3.476-0.349-7.713,3.127-9.462c0.002-0.001,0.003-0.002,0.005-0.003l22.054-11.071l9.496,18.9l-18.257,9.171"/>
	<path fill="none" stroke="#FFFFFF" stroke-width="1.5" stroke-linecap="round" stroke-linejoin="round" d="M2.679,52.479
		l7.875-3.961"/>
	<path fill="none" stroke="#FFFFFF" stroke-width="1.5" stroke-linecap="round" stroke-linejoin="round" d="M67.221,4.257
		l3.15-1.583l0,0l12.668,25.21l0,0l-3.15,1.583c-3.479,1.748-7.717,0.345-9.465-3.134l0,0l-6.336-12.608
		c-1.75-3.478-0.349-7.716,3.129-9.466C67.219,4.258,67.22,4.258,67.221,4.257z"/>
	<path fill="none" stroke="#FFFFFF" stroke-width="1.5" stroke-linecap="round" stroke-linejoin="round" d="M55.107,40.714
		C57.768,46,55.64,52.441,50.355,55.102c-5.285,2.661-11.727,0.533-14.388-4.753c-2.66-5.283-0.535-11.723,4.747-14.385
		c5.284-2.664,11.727-0.539,14.39,4.745C55.105,40.711,55.106,40.713,55.107,40.714z"/>
	<path fill="none" stroke="#FFFFFF" stroke-width="1.5" stroke-linecap="round" stroke-linejoin="round" d="M45.536,56.25v26.786"/>
	<path fill="none" stroke="#FFFFFF" stroke-width="1.5" stroke-linecap="round" stroke-linejoin="round" d="M21.429,83.036
		l16.396-30.061"/>
	<path fill="none" stroke="#FFFFFF" stroke-width="1.5" stroke-linecap="round" stroke-linejoin="round" d="M69.643,83.036
		L53.246,52.975"/>
</g>
</svg>
