<?xml version="1.0" encoding="UTF-8"?>
<svg width="18px" height="18px" viewBox="0 0 18 18" version="1.1" xmlns="http://www.w3.org/2000/svg" xmlns:xlink="http://www.w3.org/1999/xlink">
    <title>icons/support</title>
    <g id="icons/support" stroke="none" stroke-width="1" fill="none" fill-rule="evenodd">
        <g id="headphones-customer-support-human-1" fill="#FFFFFF">
            <path d="M9.9825,0.000749999999 C10.5104406,0.000749999999 10.9534443,0.364408228 11.0746795,0.854893078 C14.8624261,1.47105931 17.8575,4.7048337 17.8575,8.43825 C17.8575,10.7957268 16.7736239,13.0165127 14.9283139,14.4668453 L14.857,14.52 L14.8575,17.625 C14.8575,17.8062184 14.7289568,17.957414 14.5580756,17.9923813 L14.4825,18 C14.3012816,18 14.150086,17.8714568 14.1151187,17.7005756 L14.1075,17.625 L14.1075,14.334 C14.1075,14.2141014 14.1648326,14.1014315 14.2617575,14.0308536 C16.0498413,12.7288224 17.1075,10.6502332 17.1075,8.43825 C17.1075,5.13667953 14.4723733,2.24261203 11.1082797,1.62175192 L11.1081708,6.31254444 C12.673082,6.99443539 13.5928877,8.66217367 13.3061223,10.3703358 C13.0028986,12.1765341 11.439349,13.4994758 9.607875,13.4994758 C8.97930293,13.4994758 8.38228968,13.3436464 7.85695429,13.0659329 C6.75007779,14.0495807 5.47620021,14.6957625 4.30653931,14.7987696 C4.15129624,15.3478828 3.64519545,15.75075 3.045,15.75075 L3.045,15.75075 L2.67,15.75075 C1.94512627,15.75075 1.3575,15.1631237 1.3575,14.43825 C1.3575,13.7133763 1.94512627,13.12575 2.67,13.12575 L2.67,13.12575 L3.045,13.12575 C3.63283665,13.12575 4.1304138,13.5121969 4.29753818,14.0448974 C5.23035321,13.9481379 6.27281938,13.4278312 7.21176921,12.6323019 C6.54002304,12.0758778 6.06319489,11.285082 5.90962773,10.3703358 C5.62289151,8.6623477 6.54248055,6.99477522 8.10710086,6.31275289 L8.10760015,1.66015478 C5.00441252,2.26150846 3.7113421,4.28085862 2.01265031,9.62972434 L1.501,11.249 L3.2325,11.25 C3.41371843,11.25 3.56491398,11.3785432 3.59988133,11.5494244 L3.6075,11.625 L3.6075,12 C3.6075,12.2071068 3.43960678,12.375 3.2325,12.375 C3.05128157,12.375 2.90008602,12.2464568 2.86511867,12.0755756 L2.8575,12 L1.49873081,11.9999979 C1.25924134,11.9991873 1.03453938,11.8840519 0.893995173,11.6901365 C0.753450971,11.4962211 0.713966261,11.2468457 0.787631456,11.0193052 L0.985511951,10.3977582 L1.18526696,9.76004927 C3.05059777,3.79202768 4.4675427,1.53050714 8.13229072,0.892739835 C8.23867166,0.383484097 8.69088966,0.000749999999 9.2325,0.000749999999 L9.2325,0.000749999999 Z M4.83846951,15.6469038 L4.91283515,15.6623784 C5.03567178,15.7011352 5.16198492,15.7271877 5.28982896,15.7402307 L5.4825,15.75 L6.9825,15.75 C7.16371843,15.75 7.31491398,15.8785432 7.34988133,16.0494244 L7.3575,16.125 L7.3575,17.625 C7.3575,17.8321068 7.18960678,18 6.9825,18 C6.80128157,18 6.65008602,17.8714568 6.61511867,17.7005756 L6.6075,17.625 L6.607,16.5 L5.48262413,16.5 C5.28023785,16.500067 5.07874058,16.4768682 4.88207451,16.4310102 L4.68716485,16.3776216 C4.48965588,16.3153045 4.38006124,16.1046738 4.44237837,15.9071648 C4.49690586,15.7343445 4.66498591,15.6288336 4.83846951,15.6469038 Z M3.045,13.87575 L2.67,13.87575 C2.35933983,13.87575 2.1075,14.1275898 2.1075,14.43825 C2.1075,14.7489102 2.35933983,15.00075 2.67,15.00075 L2.67,15.00075 L3.045,15.00075 C3.35566017,15.00075 3.6075,14.7489102 3.6075,14.43825 C3.6075,14.1275898 3.35566017,13.87575 3.045,13.87575 L3.045,13.87575 Z M10.8924319,7.03822753 C10.6857338,7.31942532 10.3552922,7.50075 9.9825,7.50075 L9.9825,7.50075 L9.2325,7.50075 C8.85885375,7.50075 8.52775241,7.31859356 8.3231548,7.0382395 C7.12285099,7.60593595 6.42506421,8.91060496 6.64927718,10.2461638 C6.77782906,11.0119026 7.1895354,11.6690694 7.7662409,12.1176911 C8.11227604,11.7669952 8.43580206,11.3792964 8.72459809,10.9630716 C8.34994393,10.6896291 8.1075,10.2485024 8.1075,9.75075 C8.1075,8.92232288 8.77907288,8.25075 9.6075,8.25075 C10.4359271,8.25075 11.1075,8.92232288 11.1075,9.75075 C11.1075,10.5791771 10.4359271,11.25075 9.6075,11.25075 C9.55145934,11.25075 9.49613647,11.2476768 9.44169072,11.2416897 L9.58422343,11.0212911 C9.2484075,11.5584407 8.85810599,12.0590255 8.4318929,12.5089567 C8.7932143,12.6641717 9.19190669,12.7494758 9.607875,12.7494758 C11.0730542,12.7494758 12.3238939,11.6911224 12.5664728,10.2461638 C12.7906858,8.91060496 12.092899,7.60593595 10.8924319,7.03822753 Z M9.6075,9.00075 C9.19328644,9.00075 8.8575,9.33653644 8.8575,9.75075 C8.8575,10.1649636 9.19328644,10.50075 9.6075,10.50075 C10.0217136,10.50075 10.3575,10.1649636 10.3575,9.75075 C10.3575,9.33653644 10.0217136,9.00075 9.6075,9.00075 Z M9.9825,0.75075 L9.2325,0.75075 C9.02539322,0.75075 8.8575,0.918643219 8.8575,1.12575 L8.8575,1.12575 L8.8575,6.37575 C8.8575,6.58285678 9.02539322,6.75075 9.2325,6.75075 L9.2325,6.75075 L9.9825,6.75075 C10.1896068,6.75075 10.3575,6.58285678 10.3575,6.37575 L10.3575,6.37575 L10.3575,1.12575 C10.3575,0.918643219 10.1896068,0.75075 9.9825,0.75075 L9.9825,0.75075 Z" id="Combined-Shape"></path>
        </g>
    </g>
</svg>