<?xml version="1.0" encoding="UTF-8"?>
<svg width="18px" height="18px" viewBox="0 0 18 18" version="1.1" xmlns="http://www.w3.org/2000/svg" xmlns:xlink="http://www.w3.org/1999/xlink">
    <title>icons/twitter</title>
    <g id="icons/twitter" stroke="none" stroke-width="1" fill="none" fill-rule="evenodd">
        <path d="M0,14.412147 C0.28462587,14.4447875 0.574246315,14.4614858 0.867888365,14.4614858 C2.57240036,14.4614858 4.14115074,13.8964524 5.38629162,12.9485548 C3.79425485,12.9200101 2.4506495,11.8981987 1.98771084,10.4940273 C2.20980724,10.5353005 2.43774144,10.5574179 2.67216211,10.5574179 C3.00400941,10.5574179 3.32541351,10.5142543 3.63073119,10.4334723 C1.96630552,10.1088317 0.712278186,8.68033739 0.712278186,6.96790861 C0.712278186,6.95303765 0.712278186,6.93822971 0.712537645,6.92348477 C1.20310862,7.18820045 1.7640577,7.34718109 2.3604877,7.36551774 C1.38427546,6.73173762 0.741921309,5.64993834 0.741921309,4.42377733 C0.741921309,3.77607144 0.921336796,3.16894562 1.23450309,2.64694974 C3.02891742,4.78521726 5.70970652,6.19228727 8.73343478,6.3396736 C8.67142422,6.08100712 8.63918651,5.81125044 8.63918651,5.53424732 C8.63918651,3.5824339 10.2681961,2 12.2775069,2 C13.3239026,2 14.2694339,2.42924142 14.9331285,3.11614111 C15.7618386,2.95760156 16.5404733,2.66345903 17.243411,2.25847744 C16.9717581,3.08375267 16.3949172,3.7763865 15.6437202,4.21381955 C16.379674,4.12837455 17.0808603,3.93839174 17.7333333,3.6572928 C17.2455515,4.36605785 16.6286892,4.98855872 15.9179029,5.48686189 C15.9249083,5.63840704 15.9284109,5.79083438 15.9284109,5.94408087 C15.9284109,10.6145073 12.2690096,16 5.57705841,16 C3.52247217,16 1.61006913,15.4149286 0,14.412147 Z" id="Logo" fill="#FFFFFF"></path>
    </g>
</svg>